<?xml version="1.0" standalone="no"?>
<!DOCTYPE svg PUBLIC "-//W3C//DTD SVG 20010904//EN"
 "http://www.w3.org/TR/2001/REC-SVG-20010904/DTD/svg10.dtd">
<svg version="1.0" xmlns="http://www.w3.org/2000/svg"
 width="800.000000pt" height="800.000000pt" viewBox="0 0 800.000000 800.000000"
 preserveAspectRatio="xMidYMid meet">
<metadata>
Created by potrace 1.11, written by Peter Selinger 2001-2013
</metadata>
<g transform="translate(0.000000,800.000000) scale(0.100000,-0.100000)"
fill="#000000" stroke="none">
<path d="M3760 7809 c-200 -33 -384 -103 -533 -202 -279 -186 -468 -455 -554
-786 -34 -135 -39 -332 -19 -892 9 -251 16 -475 16 -498 l0 -41 -523 0 c-583
0 -627 -4 -816 -66 -350 -116 -589 -349 -688 -671 -55 -181 -61 -119 292
-2948 28 -224 58 -350 110 -462 112 -242 326 -454 590 -583 140 -68 230 -100
375 -132 l105 -23 1915 0 1915 0 104 23 c131 29 231 63 350 118 367 172 627
499 681 859 9 61 165 1484 220 2005 11 102 36 329 55 505 19 176 35 346 35
377 0 433 -318 816 -790 951 -150 43 -211 47 -761 47 l-529 0 0 23 c0 12 12
252 26 532 27 537 27 714 -1 845 -54 258 -169 468 -359 655 -183 182 -353 277
-606 341 -95 24 -126 27 -330 30 -124 1 -250 -1 -280 -7z m384 -639 c244 -28
443 -185 533 -419 38 -97 39 -238 9 -835 -14 -279 -26 -512 -26 -517 0 -5
-284 -9 -670 -9 l-670 0 0 28 c0 15 -9 275 -19 577 -11 306 -15 574 -11 605
19 133 66 237 157 345 158 187 385 260 697 225z m-1454 -2302 c0 -69 18 -599
25 -750 l6 -118 -761 0 c-601 0 -760 3 -760 13 0 6 -9 84 -20 171 -25 203 -25
286 0 367 41 133 123 225 263 294 143 70 173 73 750 74 l497 1 0 -52z m1943
45 c2 -5 -7 -201 -19 -438 -12 -236 -23 -440 -23 -452 l-1 -23 -609 0 -610 0
-5 43 c-5 43 -26 702 -26 815 l0 62 644 0 c355 0 646 -3 649 -7z m1701 -3
c295 -43 505 -257 506 -515 0 -33 -7 -135 -17 -227 l-17 -168 -784 0 -785 0 6
98 c4 53 14 255 23 447 9 193 18 356 20 363 4 15 941 17 1048 2z m-3593 -1612
c0 -29 6 -210 13 -403 7 -192 11 -353 9 -357 -2 -5 -312 -8 -689 -8 -539 0
-686 3 -689 13 -3 6 -25 181 -50 387 -25 206 -48 385 -50 398 l-5 22 730 0
730 0 1 -52z m1815 -20 c-3 -40 -13 -219 -21 -398 -9 -179 -18 -331 -20 -338
-4 -10 -119 -12 -552 -10 l-548 3 -6 175 c-3 96 -10 280 -14 408 l-7 232 587
0 587 0 -6 -72z m2173 45 c0 -16 -19 -199 -42 -408 l-42 -380 -737 -3 -738 -2
0 32 c0 61 31 703 36 746 l5 42 760 0 759 0 -1 -27z m-3938 -1583 c4 -80 9
-223 13 -317 l6 -173 -575 0 -574 0 -47 66 c-81 114 -104 193 -142 497 -5 37
-6 69 -4 72 3 3 301 4 661 3 l656 -3 6 -145z m1690 146 c2 -2 -3 -145 -11
-318 l-15 -313 -496 -3 -497 -2 -5 52 c-4 29 -9 173 -13 321 l-7 267 520 0
c286 0 522 -2 524 -4z m2089 -21 c0 -55 -32 -303 -46 -359 -18 -68 -58 -152
-103 -213 l-31 -43 -646 0 -645 0 5 43 c3 23 10 161 17 307 6 146 12 271 14
278 4 9 156 12 720 12 l715 0 0 -25z"/>
</g>
</svg>
